TITLE ""
FILE "2Q_t_0453-0469.mp3" MP3
  TRACK 01 AUDIO
    TITLE "2Q_t_0453-0469_01"
    INDEX 01 00:00:00
  TRACK 02 AUDIO
    TITLE "2Q_t_0453-0469_02"
    INDEX 01 00:00:08
  TRACK 03 AUDIO
    TITLE "2Q_t_0453-0469_03"
    INDEX 01 00:01:18
  TRACK 04 AUDIO
    TITLE "2Q_t_0453-0469_04"
    INDEX 01 00:01:67
  TRACK 05 AUDIO
    TITLE "2Q_t_0453-0469_05"
    INDEX 01 00:02:58
  TRACK 06 AUDIO
    TITLE "2Q_t_0453-0469_06"
    INDEX 01 00:03:28
  TRACK 07 AUDIO
    TITLE "2Q_t_0453-0469_07"
    INDEX 01 00:04:49
  TRACK 08 AUDIO
    TITLE "2Q_t_0453-0469_08"
    INDEX 01 00:05:21
  TRACK 09 AUDIO
    TITLE "2Q_t_0453-0469_09"
    INDEX 01 00:06:34
  TRACK 10 AUDIO
    TITLE "2Q_t_0453-0469_10"
    INDEX 01 00:07:03
  TRACK 11 AUDIO
    TITLE "2Q_t_0453-0469_11"
    INDEX 01 00:08:18
  TRACK 12 AUDIO
    TITLE "2Q_t_0453-0469_12"
    INDEX 01 00:08:69
  TRACK 13 AUDIO
    TITLE "2Q_t_0453-0469_13"
    INDEX 01 00:11:10
  TRACK 14 AUDIO
    TITLE "2Q_t_0453-0469_14"
    INDEX 01 00:11:55
  TRACK 15 AUDIO
    TITLE "2Q_t_0453-0469_15"
    INDEX 01 00:13:21
  TRACK 16 AUDIO
    TITLE "2Q_t_0453-0469_16"
    INDEX 01 00:13:70
  TRACK 17 AUDIO
    TITLE "2Q_t_0453-0469_17"
    INDEX 01 00:15:37
  TRACK 18 AUDIO
    TITLE "2Q_t_0453-0469_18"
    INDEX 01 00:16:07
  TRACK 19 AUDIO
    TITLE "2Q_t_0453-0469_19"
    INDEX 01 00:17:19
  TRACK 20 AUDIO
    TITLE "2Q_t_0453-0469_20"
    INDEX 01 00:17:66
  TRACK 21 AUDIO
    TITLE "2Q_t_0453-0469_21"
    INDEX 01 00:19:72
  TRACK 22 AUDIO
    TITLE "2Q_t_0453-0469_22"
    INDEX 01 00:20:42
  TRACK 23 AUDIO
    TITLE "2Q_t_0453-0469_23"
    INDEX 01 00:21:52
  TRACK 24 AUDIO
    TITLE "2Q_t_0453-0469_24"
    INDEX 01 00:22:22
  TRACK 25 AUDIO
    TITLE "2Q_t_0453-0469_25"
    INDEX 01 00:24:25
  TRACK 26 AUDIO
    TITLE "2Q_t_0453-0469_26"
    INDEX 01 00:24:70
  TRACK 27 AUDIO
    TITLE "2Q_t_0453-0469_27"
    INDEX 01 00:26:06
  TRACK 28 AUDIO
    TITLE "2Q_t_0453-0469_28"
    INDEX 01 00:26:57
  TRACK 29 AUDIO
    TITLE "2Q_t_0453-0469_29"
    INDEX 01 00:28:14
  TRACK 30 AUDIO
    TITLE "2Q_t_0453-0469_30"
    INDEX 01 00:28:60
  TRACK 31 AUDIO
    TITLE "2Q_t_0453-0469_31"
    INDEX 01 00:30:33
  TRACK 32 AUDIO
    TITLE "2Q_t_0453-0469_32"
    INDEX 01 00:31:01
  TRACK 33 AUDIO
    TITLE "2Q_t_0453-0469_33"
    INDEX 01 00:33:37
  TRACK 34 AUDIO
    TITLE "2Q_t_0453-0469_34"
    INDEX 01 00:34:05
  TRACK 35 AUDIO
    TITLE "2Q_t_0453-0469_35"
    INDEX 01 00:35:11
  TRACK 36 AUDIO
    TITLE "2Q_t_0453-0469_36"
    INDEX 01 00:35:65
  TRACK 37 AUDIO
    TITLE "2Q_t_0453-0469_37"
    INDEX 01 00:37:72
  TRACK 38 AUDIO
    TITLE "2Q_t_0453-0469_38"
    INDEX 01 00:38:42
  TRACK 39 AUDIO
    TITLE "2Q_t_0453-0469_39"
    INDEX 01 00:39:59
  TRACK 40 AUDIO
    TITLE "2Q_t_0453-0469_40"
    INDEX 01 00:40:35
  TRACK 41 AUDIO
    TITLE "2Q_t_0453-0469_41"
    INDEX 01 00:42:62
  TRACK 42 AUDIO
    TITLE "2Q_t_0453-0469_42"
    INDEX 01 00:43:30
  TRACK 43 AUDIO
    TITLE "2Q_t_0453-0469_43"
    INDEX 01 00:44:33
  TRACK 44 AUDIO
    TITLE "2Q_t_0453-0469_44"
    INDEX 01 00:45:09
  TRACK 45 AUDIO
    TITLE "2Q_t_0453-0469_45"
    INDEX 01 00:48:35
  TRACK 46 AUDIO
    TITLE "2Q_t_0453-0469_46"
    INDEX 01 00:49:05
  TRACK 47 AUDIO
    TITLE "2Q_t_0453-0469_47"
    INDEX 01 00:50:20
  TRACK 48 AUDIO
    TITLE "2Q_t_0453-0469_48"
    INDEX 01 00:50:65
  TRACK 49 AUDIO
    TITLE "2Q_t_0453-0469_49"
    INDEX 01 00:53:10
  TRACK 50 AUDIO
    TITLE "2Q_t_0453-0469_50"
    INDEX 01 00:53:54
  TRACK 51 AUDIO
    TITLE "2Q_t_0453-0469_51"
    INDEX 01 00:54:73
  TRACK 52 AUDIO
    TITLE "2Q_t_0453-0469_52"
    INDEX 01 00:55:47
  TRACK 53 AUDIO
    TITLE "2Q_t_0453-0469_53"
    INDEX 01 00:58:02
  TRACK 54 AUDIO
    TITLE "2Q_t_0453-0469_54"
    INDEX 01 00:58:45
  TRACK 55 AUDIO
    TITLE "2Q_t_0453-0469_55"
    INDEX 01 00:59:68
  TRACK 56 AUDIO
    TITLE "2Q_t_0453-0469_56"
    INDEX 01 01:00:38
  TRACK 57 AUDIO
    TITLE "2Q_t_0453-0469_57"
    INDEX 01 01:03:50
  TRACK 58 AUDIO
    TITLE "2Q_t_0453-0469_58"
    INDEX 01 01:04:20
  TRACK 59 AUDIO
    TITLE "2Q_t_0453-0469_59"
    INDEX 01 01:05:49
  TRACK 60 AUDIO
    TITLE "2Q_t_0453-0469_60"
    INDEX 01 01:06:23
  TRACK 61 AUDIO
    TITLE "2Q_t_0453-0469_61"
    INDEX 01 01:08:34
  TRACK 62 AUDIO
    TITLE "2Q_t_0453-0469_62"
    INDEX 01 01:09:04
  TRACK 63 AUDIO
    TITLE "2Q_t_0453-0469_63"
    INDEX 01 01:10:25
  TRACK 64 AUDIO
    TITLE "2Q_t_0453-0469_64"
    INDEX 01 01:10:72
  TRACK 65 AUDIO
    TITLE "2Q_t_0453-0469_65"
    INDEX 01 01:12:10
  TRACK 66 AUDIO
    TITLE "2Q_t_0453-0469_66"
    INDEX 01 01:12:59
  TRACK 67 AUDIO
    TITLE "2Q_t_0453-0469_67"
    INDEX 01 01:14:20
  TRACK 68 AUDIO
    TITLE "2Q_t_0453-0469_68"
    INDEX 01 01:14:66
  TRACK 69 AUDIO
    TITLE "2Q_t_0453-0469_69"
    INDEX 01 01:16:13
  TRACK 70 AUDIO
    TITLE "2Q_t_0453-0469_70"
    INDEX 01 01:16:66
  TRACK 71 AUDIO
    TITLE "2Q_t_0453-0469_71"
    INDEX 01 01:18:40
